<svg width="100%" height="100%" viewBox="-1 -1 27 27" xmlns="http://www.w3.org/2000/svg" xmlns:xlink="http://www.w3.org/1999/xlink" shape-rendering="crispEdges" id="qr code"><rect id="qr background" fill-opacity="1" fill="rgb(255, 255, 255)" x="-1" y="-1" width="27" height="27"></rect><path fill-opacity="1" fill="rgb(0, 0, 0)" id="qr dark pixels" fill-rule="evenodd" d="M 8 0 L 12 0 L 12 1 L 13 1 L 13 2 L 12 2 L 12 4 L 13 4 L 13 5 L 12 5 L 12 6 L 11 6 L 11 5 L 10 5 L 10 3 L 11 3 L 11 1 L 8 1 z M 13 0 L 14 0 L 14 1 L 13 1 z M 14 1 L 15 1 L 15 2 L 14 2 z M 16 1 L 17 1 L 17 2 L 16 2 z M 9 2 L 10 2 L 10 3 L 9 3 z M 13 2 L 14 2 L 14 4 L 13 4 z M 15 2 L 16 2 L 16 3 L 15 3 z M 16 3 L 17 3 L 17 7 L 16 7 z M 9 5 L 10 5 L 10 6 L 9 6 z M 13 5 L 14 5 L 14 6 L 13 6 z M 8 6 L 9 6 L 9 7 L 10 7 L 10 9 L 9 9 L 9 8 L 8 8 z M 10 6 L 11 6 L 11 7 L 10 7 z M 12 6 L 13 6 L 13 7 L 14 7 L 14 8 L 13 8 L 13 9 L 12 9 z M 14 6 L 15 6 L 15 7 L 14 7 z M 0 8 L 2 8 L 2 10 L 3 10 L 3 12 L 2 12 L 2 11 L 1 11 L 1 9 L 0 9 z M 3 8 L 5 8 L 5 9 L 4 9 L 4 10 L 3 10 z M 6 8 L 7 8 L 7 9 L 6 9 z M 14 8 L 16 8 L 16 10 L 19 10 L 19 11 L 20 11 L 20 12 L 19 12 L 19 13 L 18 13 L 18 11 L 17 11 L 17 13 L 18 13 L 18 14 L 17 14 L 17 15 L 15 15 L 15 16 L 14 16 L 14 13 L 15 13 L 15 12 L 16 12 L 16 11 L 15 11 L 15 10 L 14 10 L 14 11 L 12 11 L 12 10 L 13 10 L 13 9 L 14 9 z M 18 8 L 19 8 L 19 9 L 18 9 z M 24 8 L 25 8 L 25 9 L 24 9 z M 7 9 L 9 9 L 9 10 L 10 10 L 10 11 L 8 11 L 8 10 L 7 10 z M 10 9 L 11 9 L 11 10 L 10 10 z M 19 9 L 24 9 L 24 10 L 22 10 L 22 11 L 24 11 L 24 10 L 25 10 L 25 13 L 24 13 L 24 12 L 21 12 L 21 11 L 20 11 L 20 10 L 19 10 z M 6 10 L 7 10 L 7 11 L 6 11 z M 0 11 L 1 11 L 1 12 L 0 12 z M 4 11 L 5 11 L 5 12 L 7 12 L 7 11 L 8 11 L 8 13 L 6 13 L 6 14 L 5 14 L 5 13 L 4 13 z M 14 11 L 15 11 L 15 12 L 14 12 z M 9 12 L 11 12 L 11 14 L 10 14 L 10 13 L 9 13 z M 12 12 L 13 12 L 13 14 L 12 14 z M 0 13 L 1 13 L 1 14 L 2 14 L 2 13 L 3 13 L 3 15 L 1 15 L 1 17 L 0 17 z M 8 13 L 9 13 L 9 14 L 8 14 z M 20 13 L 21 13 L 21 14 L 23 14 L 23 13 L 24 13 L 24 14 L 25 14 L 25 16 L 24 16 L 24 15 L 23 15 L 23 16 L 24 16 L 24 18 L 22 18 L 22 16 L 21 16 L 21 15 L 20 15 z M 4 14 L 5 14 L 5 15 L 4 15 z M 6 14 L 8 14 L 8 15 L 6 15 z M 9 14 L 10 14 L 10 15 L 12 15 L 12 16 L 10 16 L 10 17 L 9 17 L 9 16 L 8 16 L 8 15 L 9 15 z M 18 14 L 19 14 L 19 15 L 18 15 z M 3 15 L 4 15 L 4 16 L 8 16 L 8 17 L 2 17 L 2 16 L 3 16 z M 19 15 L 20 15 L 20 16 L 21 16 L 21 21 L 19 21 L 19 22 L 18 22 L 18 25 L 16 25 L 16 24 L 17 24 L 17 22 L 13 22 L 13 21 L 14 21 L 14 20 L 15 20 L 15 19 L 16 19 L 16 18 L 15 18 L 15 16 L 19 16 zM 17 17 L 20 17 L 20 20 L 17 20 z M 12 16 L 14 16 L 14 17 L 12 17 z M 8 17 L 9 17 L 9 18 L 8 18 z M 10 17 L 11 17 L 11 18 L 12 18 L 12 19 L 13 19 L 13 18 L 15 18 L 15 19 L 14 19 L 14 20 L 13 20 L 13 21 L 12 21 L 12 20 L 11 20 L 11 21 L 10 21 L 10 19 L 9 19 L 9 18 L 10 18 z M 18 18 L 19 18 L 19 19 L 18 19 z M 24 18 L 25 18 L 25 19 L 24 19 z M 8 20 L 9 20 L 9 22 L 8 22 z M 11 21 L 12 21 L 12 22 L 13 22 L 13 23 L 10 23 L 10 22 L 11 22 z M 23 21 L 25 21 L 25 25 L 24 25 L 24 24 L 22 24 L 22 23 L 21 23 L 21 24 L 19 24 L 19 23 L 20 23 L 20 22 L 23 22 z M 8 23 L 9 23 L 9 24 L 10 24 L 10 25 L 8 25 z M 12 24 L 13 24 L 13 25 L 12 25 z M 14 24 L 15 24 L 15 25 L 14 25 z M 21 24 L 22 24 L 22 25 L 21 25 z"></path><path id="qr squares" d="M0,0h7h0v0v7v0h0h-7h0v0v-7v0h0zM1,1h5h0v0v5v0h0h-5h0v0v-5v0h0zM2,2h3h0v0v3v0h0h-3h0v0v-3v0h0z M18,0h7h0v0v7v0h0h-7h0v0v-7v0h0zM19,1h5h0v0v5v0h0h-5h0v0v-5v0h0zM20,2h3h0v0v3v0h0h-3h0v0v-3v0h0z M0,18h7h0v0v7v0h0h-7h0v0v-7v0h0zM1,19h5h0v0v5v0h0h-5h0v0v-5v0h0zM2,20h3h0v0v3v0h0h-3h0v0v-3v0h0z" fill-rule="evenodd" fill-opacity="1" fill="rgb(0, 0, 0)"></path></svg>