<?xml version="1.0" standalone="no"?>
<!DOCTYPE svg PUBLIC "-//W3C//DTD SVG 20010904//EN"
 "http://www.w3.org/TR/2001/REC-SVG-20010904/DTD/svg10.dtd">
<svg version="1.0" xmlns="http://www.w3.org/2000/svg"
 width="1000.000000pt" height="1000.000000pt" viewBox="0 0 1000.000000 1000.000000"
 preserveAspectRatio="xMidYMid meet">
<metadata>
Created by potrace 1.14, written by Peter Selinger 2001-2017
</metadata>
<g transform="translate(0.000000,1000.000000) scale(0.100000,-0.100000)"
fill="#000000" stroke="none">
<path d="M0 5000 l0 -5000 5000 0 5000 0 0 5000 0 5000 -5000 0 -5000 0 0
-5000z m8383 2219 c67 -6 124 -14 127 -18 9 -11 50 -31 65 -31 8 0 36 -13 62
-30 26 -16 52 -30 58 -30 5 0 15 -10 20 -22 6 -13 20 -24 33 -26 14 -2 22 -10
22 -23 0 -12 9 -21 25 -25 16 -4 25 -13 25 -26 0 -11 8 -22 19 -25 11 -3 22
-15 25 -27 3 -12 15 -31 26 -44 11 -12 26 -47 32 -77 6 -34 18 -60 28 -65 14
-7 18 -31 24 -132 8 -154 0 -238 -23 -238 -10 0 -23 -6 -29 -12 -8 -8 -43 -13
-95 -13 -66 0 -90 5 -124 23 l-43 22 0 114 c0 138 -7 177 -32 183 -10 3 -18
11 -18 19 0 11 -36 51 -105 114 -11 10 -36 21 -55 25 -19 4 -43 16 -53 26 -17
19 -99 19 -3321 19 -2372 0 -3312 -3 -3335 -11 -17 -6 -31 -15 -31 -19 0 -4
-20 -14 -45 -21 -25 -8 -47 -21 -50 -31 -3 -9 -16 -18 -28 -20 -14 -2 -23 -11
-25 -25 -2 -13 -8 -23 -13 -23 -18 0 -36 -25 -44 -58 -3 -18 -14 -40 -23 -49
-16 -15 -17 -159 -17 -1967 l0 -1951 23 -23 c12 -12 22 -28 22 -34 0 -7 14
-29 30 -48 16 -19 30 -38 30 -42 0 -4 17 -16 38 -27 21 -11 44 -26 51 -34 7
-9 30 -18 52 -22 23 -4 53 -13 67 -21 23 -12 522 -14 3294 -14 1847 0 3269 4
3272 9 3 5 37 17 76 27 47 12 72 24 75 35 3 10 16 19 28 21 12 2 26 13 32 26
5 12 17 22 26 22 10 0 19 11 23 30 3 17 12 30 20 30 24 0 29 30 35 187 3 83
10 155 14 159 11 11 196 18 251 10 l45 -7 7 -66 c10 -98 -8 -323 -28 -337 -8
-6 -19 -30 -23 -54 -4 -23 -14 -50 -23 -59 -21 -20 -42 -61 -42 -79 0 -8 -7
-14 -15 -14 -9 0 -21 -11 -27 -25 -6 -13 -19 -27 -29 -30 -9 -3 -20 -17 -23
-30 -5 -18 -13 -25 -31 -25 -14 0 -26 -7 -30 -18 -3 -11 -23 -25 -46 -32 -22
-8 -44 -21 -49 -31 -5 -9 -26 -20 -47 -23 -52 -10 -107 -29 -115 -41 -5 -7
-1131 -10 -3380 -10 l-3373 0 -40 22 c-21 13 -49 23 -61 23 -28 0 -84 28 -91
46 -3 8 -13 14 -24 14 -10 0 -29 10 -42 22 -13 13 -42 39 -65 58 -23 19 -42
40 -42 47 0 7 -7 13 -15 13 -9 0 -19 10 -24 23 -5 12 -19 30 -30 39 -12 10
-21 24 -21 32 0 8 -9 21 -19 28 -12 9 -23 36 -31 78 -7 36 -20 71 -29 78 -15
12 -16 182 -19 2019 -2 1967 -2 2006 17 2019 13 10 23 36 32 84 7 38 16 70 20
70 5 0 17 17 28 38 10 20 29 48 40 62 66 78 96 110 104 110 4 0 22 13 40 30
18 16 37 30 44 30 7 0 20 9 30 19 10 10 37 24 60 30 23 7 46 18 50 25 5 9 44
17 113 23 156 15 6506 16 6663 2z m-4728 -1051 c14 -6 25 -14 25 -18 0 -4 25
-12 55 -19 30 -7 55 -16 55 -20 0 -9 66 -41 86 -41 12 0 14 -13 12 -72 -3 -68
-5 -73 -27 -76 -13 -2 -25 -12 -28 -22 -3 -9 -16 -23 -29 -29 -13 -6 -24 -15
-24 -21 0 -17 -57 -40 -99 -40 -22 0 -65 11 -95 25 -73 33 -230 36 -287 6 -20
-11 -53 -23 -73 -27 -22 -4 -43 -16 -52 -29 -8 -13 -26 -26 -40 -29 -13 -4
-24 -13 -24 -21 0 -9 -11 -21 -25 -27 -14 -6 -25 -19 -25 -29 0 -10 -8 -24
-19 -31 -10 -7 -24 -31 -32 -53 -7 -22 -22 -55 -31 -73 -14 -25 -18 -56 -18
-140 0 -93 3 -111 19 -129 11 -11 23 -37 27 -57 4 -23 16 -43 30 -53 13 -8 24
-24 24 -34 0 -11 5 -19 10 -19 6 0 10 -6 10 -13 0 -7 15 -21 33 -32 17 -10 38
-26 45 -36 6 -10 24 -20 40 -24 32 -7 48 -19 85 -63 24 -30 27 -41 27 -112 0
-43 -4 -82 -10 -85 -5 -3 -10 -23 -10 -44 0 -21 -7 -54 -15 -73 -14 -34 -16
-35 -81 -41 -49 -5 -72 -12 -86 -27 -13 -13 -32 -20 -58 -20 -21 0 -42 -4 -45
-10 -3 -5 -14 -10 -25 -10 -10 0 -20 -6 -23 -13 -3 -8 -26 -20 -50 -27 -25 -7
-48 -18 -51 -26 -3 -8 -12 -14 -20 -14 -8 0 -26 -11 -40 -25 -14 -14 -29 -25
-34 -25 -5 0 -23 -13 -42 -30 -18 -16 -42 -32 -52 -36 -10 -3 -18 -14 -18 -24
0 -9 -9 -20 -20 -23 -11 -3 -23 -13 -26 -22 -4 -9 -16 -27 -28 -40 -49 -53
-86 -105 -86 -122 0 -10 -8 -23 -19 -30 -10 -6 -23 -32 -30 -57 -6 -25 -15
-46 -20 -46 -14 0 -29 -51 -36 -124 -3 -38 -9 -74 -13 -80 -19 -30 -32 -87
-32 -143 0 -54 3 -65 23 -78 20 -12 113 -15 667 -16 720 -2 785 -5 806 -34 8
-11 31 -24 52 -30 22 -6 41 -19 47 -33 6 -13 19 -22 31 -22 12 0 25 -10 32
-25 6 -14 17 -25 24 -25 12 0 53 -37 117 -104 20 -21 22 -27 11 -40 -11 -14
-120 -16 -1013 -16 -853 0 -1003 2 -1016 14 -28 25 -66 64 -81 82 -12 16 -15
61 -15 265 0 167 4 251 12 260 6 8 19 54 28 104 12 64 22 93 36 103 13 9 19
25 19 51 0 27 7 46 25 65 15 16 25 39 25 56 0 17 8 34 18 42 23 16 42 51 42
77 0 11 9 22 19 26 11 3 23 15 26 25 3 10 19 33 36 51 16 17 29 37 29 44 0 8
9 17 20 20 11 3 20 11 20 16 0 12 88 99 100 99 4 0 21 14 38 30 18 17 38 30
46 30 8 0 17 8 20 18 4 10 24 26 46 36 22 10 40 21 40 26 0 4 17 15 39 23 21
9 41 23 44 31 4 9 16 16 27 16 40 0 60 18 60 56 0 27 -5 37 -19 41 -11 3 -21
15 -23 27 -2 11 -12 25 -24 30 -12 6 -26 26 -33 52 -7 23 -19 45 -26 48 -8 3
-17 21 -21 41 -3 19 -15 46 -25 59 -24 31 -39 207 -28 346 4 58 8 114 8 126 1
11 10 30 21 42 11 12 20 31 20 42 0 26 18 62 36 73 8 4 14 17 14 27 0 11 9 25
20 32 11 7 20 18 20 25 0 7 5 13 10 13 6 0 10 6 10 14 0 8 11 23 24 33 13 11
25 28 27 39 3 10 14 20 25 22 12 2 26 14 32 28 7 13 17 24 24 24 7 0 23 11 36
25 13 13 38 29 57 35 19 6 35 17 35 24 0 7 25 17 62 24 37 7 70 20 82 32 19
19 33 20 223 20 132 0 211 -4 228 -12z m2785 -464 c8 -8 15 -50 18 -93 4 -65
1 -84 -17 -119 l-21 -42 -279 0 c-245 0 -280 -2 -285 -16 -3 -9 -6 -413 -6
-900 l0 -884 -27 -7 c-50 -14 -278 -10 -296 6 -16 12 -17 87 -17 895 0 673 -3
885 -12 894 -9 9 -85 12 -279 12 -147 0 -274 3 -283 6 -9 3 -16 14 -16 24 0
11 -4 22 -10 25 -13 8 -13 144 1 184 l11 31 753 0 c669 0 754 -2 765 -16z
m1175 -7 c14 -19 64 -37 106 -37 15 0 34 -10 47 -25 12 -14 31 -25 42 -25 11
0 20 -7 20 -15 0 -8 14 -21 30 -30 17 -9 30 -22 30 -31 0 -8 11 -19 25 -24 15
-6 25 -17 25 -29 0 -11 9 -22 19 -26 20 -6 31 -33 31 -76 0 -17 6 -28 18 -32
27 -6 32 -45 32 -232 0 -186 -5 -222 -31 -230 -14 -5 -19 -16 -19 -46 0 -29
-6 -45 -25 -61 -14 -12 -25 -30 -25 -41 0 -10 -13 -32 -30 -47 -16 -15 -30
-34 -30 -42 0 -7 -10 -18 -22 -23 -13 -6 -24 -20 -26 -32 -2 -16 -10 -23 -27
-23 -13 0 -29 -10 -39 -25 -10 -14 -30 -27 -51 -31 -24 -4 -35 -12 -35 -24 0
-21 -19 -30 -67 -30 -24 0 -40 -7 -53 -22 -15 -18 -31 -23 -106 -28 -81 -6
-99 -9 -144 -28 -8 -4 -69 -11 -135 -17 l-120 -10 -3 -357 -2 -356 -67 -8
c-68 -7 -225 0 -243 11 -11 7 -14 2013 -4 2053 l7 23 429 -3 c399 -3 431 -4
443 -21z"/>
<path d="M7062 5458 c-9 -17 -12 -120 -10 -423 l3 -400 168 0 c147 0 170 2
181 17 7 9 34 22 60 29 26 6 50 18 53 25 3 8 11 14 18 14 20 0 85 69 85 90 0
13 7 20 20 20 14 0 22 11 29 38 6 20 11 41 11 46 0 5 8 15 18 22 14 10 18 33
20 143 3 94 0 139 -9 161 -8 16 -17 30 -20 30 -4 0 -14 18 -23 40 -9 22 -22
40 -30 40 -8 0 -16 10 -18 23 -2 15 -11 23 -28 25 -13 2 -35 12 -48 22 -27 22
-54 26 -242 41 -74 6 -155 13 -180 15 -40 5 -47 3 -58 -18z"/>
</g>
</svg>
